<svg xmlns="http://www.w3.org/2000/svg"  viewBox="0 0 24.557 25.173">
    <path id="SettingsIcon" d="M24.575 16.546a9.614 9.614 0 0 0 .086-1.209 9.614 9.614 0 0 0-.086-1.209l2.6-2.036a.622.622 0 0 0 .148-.79l-2.464-4.268a.62.62 0 0 0-.753-.271L21.034 8a9.013 9.013 0 0 0-2.085-1.209l-.469-3.269a.6.6 0 0 0-.6-.518h-4.939a.6.6 0 0 0-.6.518l-.469 3.269A9.478 9.478 0 0 0 9.783 8L6.711 6.763a.6.6 0 0 0-.753.271L3.492 11.3a.608.608 0 0 0 .148.79l2.6 2.036a9.784 9.784 0 0 0-.086 1.209 9.784 9.784 0 0 0 .086 1.209l-2.6 2.036a.622.622 0 0 0-.148.79l2.467 4.268a.62.62 0 0 0 .753.271l3.072-1.234a9.013 9.013 0 0 0 2.085 1.209l.469 3.269a.6.6 0 0 0 .6.518h4.935a.6.6 0 0 0 .6-.518l.469-3.269a9.478 9.478 0 0 0 2.085-1.209l3.072 1.234a.6.6 0 0 0 .753-.271l2.467-4.268a.622.622 0 0 0-.148-.79l-2.6-2.036zm-9.166 3.109a4.318 4.318 0 1 1 4.318-4.318 4.323 4.323 0 0 1-4.318 4.317z" class="cls-1" transform="translate(-3.126 -2.75)"/>
</svg>
